<?xml version="1.0" standalone="no"?>
<!DOCTYPE svg PUBLIC "-//W3C//DTD SVG 20010904//EN"
 "http://www.w3.org/TR/2001/REC-SVG-20010904/DTD/svg10.dtd">
<svg version="1.0" xmlns="http://www.w3.org/2000/svg"
 width="447.000000pt" height="444.000000pt" viewBox="0 0 447.000000 444.000000"
 preserveAspectRatio="xMidYMid meet">

<g transform="translate(0.000000,444.000000) scale(0.100000,-0.100000)"
fill="#000000" stroke="none">
<path d="M2255 3294 c-315 -44 -547 -211 -674 -486 -94 -201 -101 -444 -18
-648 102 -251 307 -431 572 -501 111 -29 289 -29 400 0 376 99 629 423 629
806 0 445 -341 802 -789 828 -49 3 -103 3 -120 1z m300 -104 c239 -75 430
-266 505 -505 34 -108 39 -285 11 -395 -21 -82 -95 -250 -111 -250 -4 0 -10
18 -14 41 -15 95 -93 195 -190 242 -30 15 -59 27 -64 27 -16 0 9 -72 35 -101
28 -31 29 -63 3 -89 -24 -24 -57 -26 -82 -3 -27 24 -23 68 8 92 21 17 25 26
19 48 -11 46 -32 71 -77 91 -50 22 -73 46 -82 84 -5 22 4 47 39 112 25 47 48
105 51 130 5 35 11 46 24 46 10 0 29 9 44 21 35 28 34 64 -4 99 -22 21 -30 37
-30 63 0 20 -14 62 -33 98 -92 179 -328 223 -480 90 -44 -39 -97 -142 -97
-189 0 -25 -8 -41 -30 -62 -16 -15 -30 -38 -30 -49 0 -27 43 -71 68 -71 16 0
21 -10 27 -45 3 -25 24 -80 46 -123 59 -115 51 -152 -42 -202 -76 -40 -77 -59
-6 -131 58 -60 77 -115 77 -221 0 -47 -4 -59 -22 -72 -29 -20 -78 -21 -78 -2
0 10 13 16 38 18 l37 3 0 70 c0 61 -4 77 -31 120 -57 94 -111 98 -170 13 -39
-55 -59 -124 -50 -173 7 -33 9 -35 46 -35 30 0 40 -4 40 -16 0 -14 -8 -16 -42
-11 -23 3 -48 14 -55 23 -17 23 -16 84 2 157 16 69 34 98 92 153 48 45 56 69
21 59 -63 -19 -128 -56 -150 -86 -29 -40 -75 -143 -84 -188 -4 -17 -10 -34
-15 -36 -12 -8 -79 118 -107 203 -23 68 -26 94 -26 222 -1 125 2 155 22 220
84 271 305 471 583 530 78 16 285 5 364 -20z m-205 -261 c0 -12 7 -19 20 -19
11 0 20 -4 20 -10 0 -5 -9 -10 -20 -10 -13 0 -20 -7 -20 -20 0 -11 -7 -20 -15
-20 -8 0 -15 9 -15 20 0 13 -7 20 -20 20 -11 0 -20 5 -20 10 0 6 9 10 20 10
13 0 20 7 20 18 0 10 3 22 6 25 11 10 24 -3 24 -24z"/>
<path d="M2667 2224 c-4 -4 -7 -16 -7 -26 0 -14 6 -19 23 -16 14 2 22 10 22
23 0 20 -25 32 -38 19z"/>
<path d="M1378 1343 c-15 -4 -18 -16 -18 -64 l0 -59 -38 6 c-73 11 -127 -34
-138 -117 -14 -99 44 -159 153 -159 100 0 93 -15 93 206 0 210 2 201 -52 187z
m-20 -260 l3 -73 -31 0 c-41 0 -70 31 -70 76 0 57 15 76 58 72 l37 -3 3 -72z"/>
<path d="M2483 1343 c-21 -4 -23 -10 -23 -64 l0 -60 -33 6 c-46 9 -102 -16
-121 -54 -20 -38 -21 -123 -1 -161 21 -41 63 -60 134 -60 97 0 91 -15 91 206
0 149 -3 194 -12 193 -7 -1 -23 -4 -35 -6z m-23 -259 c0 -73 0 -74 -26 -74
-39 0 -62 17 -69 50 -15 69 16 113 72 102 22 -4 23 -9 23 -78z"/>
<path d="M2832 1328 c-27 -27 -6 -68 35 -68 26 0 47 32 38 60 -7 23 -53 28
-73 8z"/>
<path d="M2098 1293 c-16 -4 -18 -20 -18 -149 0 -141 1 -146 25 -170 22 -22
32 -25 83 -22 56 3 57 3 57 33 0 28 -2 30 -33 27 -50 -5 -62 11 -62 84 l0 64
45 0 c43 0 45 1 45 30 0 29 -2 30 -45 30 l-45 0 0 40 c0 41 -6 45 -52 33z"/>
<path d="M1563 1210 c-45 -27 -65 -63 -66 -118 -1 -90 49 -142 136 -142 52 0
93 27 113 76 53 126 -72 252 -183 184z m105 -68 c18 -23 15 -92 -5 -114 -38
-43 -93 -6 -93 62 0 69 58 100 98 52z"/>
<path d="M1883 1216 c-45 -20 -73 -70 -73 -129 0 -96 48 -140 148 -135 56 3
57 4 57 33 0 28 -2 30 -34 27 -52 -5 -77 5 -91 37 -14 34 -6 84 17 102 8 7 34
12 58 11 39 -1 43 1 48 26 3 15 3 29 1 31 -11 12 -103 10 -131 -3z"/>
<path d="M2675 1225 c-5 -2 -22 -6 -37 -9 l-28 -6 0 -130 0 -130 35 0 35 0 0
104 0 105 48 3 c41 3 47 6 50 27 2 13 -2 28 -10 32 -13 8 -73 11 -93 4z"/>
<path d="M3314 1220 c-60 -24 -95 -114 -72 -185 19 -58 65 -85 142 -85 74 0
89 8 81 43 -7 24 -9 26 -56 20 -48 -6 -99 13 -99 37 0 5 39 11 88 12 l87 3 -3
45 c-5 57 -15 76 -55 100 -33 21 -77 25 -113 10z m80 -66 c29 -29 20 -44 -28
-44 -52 0 -65 13 -40 41 21 23 47 24 68 3z"/>
<path d="M2830 1085 l0 -135 35 0 35 0 0 135 0 135 -35 0 -35 0 0 -135z"/>
<path d="M2940 1215 c0 -9 69 -192 86 -227 14 -31 23 -38 46 -38 23 0 32 8 52
48 13 26 38 86 55 135 l30 87 -38 0 -39 0 -26 -85 c-15 -47 -28 -85 -30 -85
-5 0 -33 79 -46 128 -10 40 -12 42 -50 42 -22 0 -40 -2 -40 -5z"/>
</g>
</svg>
